HIERARCHY
ROOT Hips
{
  OFFSET 49.6471 100.608 10.4414
  CHANNELS 6 Xposition Yposition Zposition Zrotation Xrotation Yrotation
  JOINT spine
  {
    OFFSET 0 8.81705 0.507025
    CHANNELS 3 Zrotation Xrotation Yrotation
    JOINT spine1
    {
      OFFSET 0 10.7766 0
      CHANNELS 3 Zrotation Xrotation Yrotation
      JOINT spine2
      {
        OFFSET 0 10.3259 0
        CHANNELS 3 Zrotation Xrotation Yrotation
        JOINT Neck
        {
          OFFSET 0 26.511 1.26395
          CHANNELS 3 Zrotation Xrotation Yrotation
          JOINT Head
          {
            OFFSET 0 8.00966 0
            CHANNELS 3 Zrotation Xrotation Yrotation
            End Site
            {
              OFFSET 0 19.3879 -6.39386
            }
          }
        }
        JOINT RightShoulder
        {
          OFFSET -4.34795 11.1512 -0.605422
          CHANNELS 3 Zrotation Xrotation Yrotation
          JOINT RightArm
          {
            OFFSET 0 14.6258 0
            CHANNELS 3 Zrotation Xrotation Yrotation
            JOINT RightArmRoll
            {
              OFFSET 0 7.3834 0
              CHANNELS 3 Zrotation Xrotation Yrotation
              JOINT RightForeArm
              {
                OFFSET 0 21.5052 0
                CHANNELS 3 Zrotation Xrotation Yrotation
                JOINT RightForeArmRoll
                {
                  OFFSET 0 8.28532 0
                  CHANNELS 3 Zrotation Xrotation Yrotation
                  JOINT RightHand
                  {
                    OFFSET 0 16.6268 0
                    CHANNELS 3 Zrotation Xrotation Yrotation
                    End Site
                    {
                      OFFSET 0 0 0
                    }
                  }
                }
              }
            }
          }
        }
        JOINT LeftShoulder
        {
          OFFSET 4.34795 11.1512 -0.605422
          CHANNELS 3 Zrotation Xrotation Yrotation
          JOINT LeftArm
          {
            OFFSET 0 14.6258 0
            CHANNELS 3 Zrotation Xrotation Yrotation
            JOINT LeftArmRoll
            {
              OFFSET 0 7.3834 0
              CHANNELS 3 Zrotation Xrotation Yrotation
              JOINT LeftForeArm
              {
                OFFSET 0 21.5052 0
                CHANNELS 3 Zrotation Xrotation Yrotation
                JOINT LeftForeArmRoll
                {
                  OFFSET 0 8.28532 0
                  CHANNELS 3 Zrotation Xrotation Yrotation
                  JOINT LeftHand
                  {
                    OFFSET 0 16.6268 0
                    CHANNELS 3 Zrotation Xrotation Yrotation
                    End Site
                    {
                      OFFSET 0 0 0
                    }
                  }
                }
              }
            }
          }
        }
      }
    }
  }
  JOINT RightUpLeg
  {
    OFFSET -7.8151 -1.43309 -1.20217
    CHANNELS 3 Zrotation Xrotation Yrotation
    JOINT RightUpLegRoll
    {
      OFFSET 0 19.4959 0
      CHANNELS 3 Zrotation Xrotation Yrotation
      JOINT RightLeg
      {
        OFFSET 0 -24.1427 0
        CHANNELS 3 Zrotation Xrotation Yrotation
        JOINT RightLegRoll
        {
          OFFSET 0 24.2217 0
          CHANNELS 3 Zrotation Xrotation Yrotation
          JOINT RightFoot
          {
            OFFSET 0 20.1605 0
            CHANNELS 3 Zrotation Xrotation Yrotation
            JOINT RightToeBase
            {
              OFFSET 0 16.8532 0
              CHANNELS 3 Zrotation Xrotation Yrotation
              End Site
              {
                OFFSET 0.00714343 8.16187 -0.940781
              }
            }
          }
        }
      }
    }
  }
  JOINT LeftUpLeg
  {
    OFFSET 7.8151 -1.43309 -1.20217
    CHANNELS 3 Zrotation Xrotation Yrotation
    JOINT LeftUpLegRoll
    {
      OFFSET 0 19.496 0
      CHANNELS 3 Zrotation Xrotation Yrotation
      JOINT LeftLeg
      {
        OFFSET 0 24.1426 0
        CHANNELS 3 Zrotation Xrotation Yrotation
        JOINT LeftLegRoll
        {
          OFFSET 0 24.4456 0
          CHANNELS 3 Zrotation Xrotation Yrotation
          JOINT LeftFoot
          {
            OFFSET 0 19.9366 0
            CHANNELS 3 Zrotation Xrotation Yrotation
            JOINT LeftToeBase
            {
              OFFSET 0 16.8532 0
              CHANNELS 3 Zrotation Xrotation Yrotation
              End Site
              {
                OFFSET -0.0320138 8.16187 -0.94078
              }
            }
          }
        }
      }
    }
  }
}
MOTION
Frames: 6
Frame Time: 0.00208333
48.2094 100.161 9.08718 0.307922 3.69958 7.13616 -0.199063 -1.86693 0.511415 -0.386115 0.267271 1.04204 -0.398765 1.91221 1.04884 -31.88 4.845 2.03137 21.7099 9.38083 -3.05292 30.719 3.76445 7.89767 122.449 56.6233 -20.7232 -3.18055e-015 -6.36111e-015 -7.95139e-015 12.7204 51.8365 -8.12597 -4.8389e-006 3.32074e-006 -3.00228 8.02893 -4.95144 0.697679 -70.0619 -19.6704 11.1399 -91.8986 42.6634 54.5044 -6.36111e-015 1.64303e-006 -3.18055e-015 133.576 71.3143 -111.891 3.34535e-008 -1.95279e-006 3.00002 -8.02888 -4.95146 -0.697694 179.906 7.80036 -1.5221 180 7.01573e-015 179.043 177.821 8.28622 179.722 1.72263e-007 -1.14387e-006 0.12065 -20.0772 67.5497 19.1574 8.14531 25.2257 -3.49147 -175.974 11.4693 0.73573 4.54188e-006 -4.6773e-006 -0.962736 -3.54148 -14.6294 0.0422799 -2.55644e-006 -1.13722e-006 -0.204576 19.2101 68.7245 -20.1486 -8.14456 25.4393 3.20445 
48.2492 100.168 9.1136 0.32061 3.70729 6.85915 -0.193946 -1.89608 0.499035 -0.375907 0.209051 1.01669 -0.388242 1.85399 1.0233 -31.4114 4.96746 2.18628 21.2339 9.29901 -2.83781 31.1822 3.7513 7.77034 122.657 56.2102 -21.368 3.18055e-015 9.54166e-015 -4.77083e-015 12.9327 52.439 -8.31839 -4.8389e-006 3.32074e-006 -3.00227 8.02893 -4.95144 0.697679 -69.8276 -19.6507 11.154 -91.9459 42.8456 54.1953 -4.77083e-015 1.64303e-006 -0 133.686 71.398 -112.139 3.34535e-008 -1.95279e-006 3.00002 -8.02888 -4.95146 -0.697694 179.884 7.78765 -1.5119 180 7.01573e-015 179.044 177.82 8.20681 179.721 1.72263e-007 -1.14387e-006 0.116134 -20.0183 67.4954 19.1121 8.14533 25.226 -3.49148 -175.982 11.3893 0.72171 4.54188e-006 -4.6773e-006 -0.964007 -3.57032 -14.5982 0.0377053 -2.55644e-006 -1.13722e-006 -0.204418 19.2299 68.7477 -20.1687 -8.14607 25.4624 3.17294 
48.2713 100.174 9.14123 0.331958 3.71684 6.58302 -0.188743 -1.92517 0.486434 -0.365543 0.150952 0.990908 -0.377559 1.7959 0.997324 -30.9298 5.09456 2.33754 20.7458 9.21408 -2.62464 31.651 3.7304 7.63655 122.851 55.7972 -22.0184 0 0 -9.54166e-015 13.137 53.0411 -8.50743 -4.8389e-006 3.32074e-006 -3.00226 8.02893 -4.95144 0.697679 -69.5887 -19.6279 11.1668 -91.9977 43.0348 53.8762 -1.74931e-014 1.64303e-006 -6.36111e-015 133.792 71.4891 -112.391 3.34535e-008 -1.95279e-006 3.00002 -8.02888 -4.95146 -0.697694 179.865 7.7794 -1.50384 180 7.01574e-015 179.046 177.82 8.13134 179.72 1.72263e-007 -1.14387e-006 0.111633 -19.9593 67.442 19.0678 8.14538 25.2267 -3.4915 -175.991 11.3127 0.707671 4.54188e-006 -4.6773e-006 -0.965223 -3.5988 -14.5685 0.0331829 -2.55644e-006 -1.13722e-006 -0.204249 19.2503 68.7714 -20.1894 -8.14757 25.4852 3.14178 
48.3262 100.179 9.15322 0.3418 3.72835 6.308 -0.183417 -1.95416 0.473596 -0.354952 0.0930426 0.964644 -0.366643 1.738 0.970862 -30.4348 5.22608 2.48455 20.245 9.12635 -2.41385 32.1257 3.7012 7.49612 123.03 55.3851 -22.6763 2.47179e-030 2.22639e-014 -6.36111e-015 13.3325 53.6428 -8.69218 -4.8389e-006 3.32074e-006 -3.00225 8.02893 -4.95144 0.697679 -69.3452 -19.602 11.1782 -92.0546 43.2313 53.5462 -1.59028e-015 1.64303e-006 3.18055e-015 133.894 71.5882 -112.646 3.34535e-008 -1.95279e-006 3.00002 -8.02888 -4.95146 -0.697694 179.849 7.77615 -1.49819 180 7.01574e-015 179.048 177.822 8.06057 179.719 1.72263e-007 -1.14387e-006 0.107153 -19.9002 67.3898 19.0247 8.14546 25.2279 -3.49154 -175.998 11.2401 0.693524 4.54188e-006 -4.6773e-006 -0.966375 -3.62692 -14.5407 0.028719 -2.55644e-006 -1.13722e-006 -0.20407 19.2712 68.7957 -20.2106 -8.14903 25.5076 3.11127 
48.3446 100.177 9.1823 0.349971 3.74195 6.0343 -0.177933 -1.98303 0.460507 -0.344063 0.0353901 0.937865 -0.355423 1.68035 0.943882 -29.9257 5.36181 2.62672 19.7308 9.03611 -2.20588 32.6062 3.66314 7.3489 123.193 54.9748 -23.3432 6.36111e-015 0 9.54166e-015 13.5184 54.2438 -8.87166 -4.8389e-006 3.32074e-006 -3.00225 8.02893 -4.95144 0.697679 -69.0971 -19.5727 11.1879 -92.117 43.4359 53.2042 -4.77083e-015 1.64303e-006 3.18055e-015 133.991 71.6956 -112.907 3.34535e-008 -1.95279e-006 3.00002 -8.02888 -4.95146 -0.697694 179.835 7.77845 -1.49518 180 7.01575e-015 179.05 177.826 7.99524 179.718 1.72263e-007 -1.14387e-006 0.1027 -19.841 67.339 18.9831 8.14558 25.2297 -3.4916 -176.004 11.1718 0.67918 4.54188e-006 -4.6773e-006 -0.967454 -3.65466 -14.5152 0.0243196 -2.55644e-006 -1.13722e-006 -0.203883 19.2926 68.8204 -20.2325 -8.15045 25.5292 3.08172 
48.3902 100.183 9.18945 0.356311 3.75776 5.76216 -0.172256 -2.01173 0.447148 -0.332806 -0.0219378 0.910537 -0.343828 1.62303 0.916346 -29.4019 5.50154 2.76346 19.2027 8.94366 -2.00117 33.0927 3.61564 7.19474 123.339 54.5669 -24.021 -3.18055e-015 6.36111e-015 3.18055e-015 13.6936 54.8443 -9.04482 -4.8389e-006 3.32074e-006 -3.00224 8.02893 -4.95144 0.697679 -68.8444 -19.5399 11.1958 -92.1851 43.6489 52.8491 -4.77083e-015 1.64303e-006 -3.18055e-015 134.085 71.8118 -113.172 3.34535e-008 -1.95279e-006 3.00002 -8.02888 -4.95146 -0.697694 179.824 7.78685 -1.49506 180 7.01575e-015 179.052 177.831 7.93606 179.717 1.72263e-007 -1.14387e-006 0.0982792 -19.7818 67.2897 18.943 8.14574 25.2321 -3.49168 -176.01 11.1082 0.664551 4.54188e-006 -4.6773e-006 -0.96845 -3.68201 -14.4922 0.0199908 -2.55644e-006 -1.13722e-006 -0.203689 19.3147 68.8458 -20.2551 -8.15183 25.55 3.05344 
